<?xml version="1.0" encoding="utf-8"?>
<!-- Generator: Adobe Illustrator 22.1.0, SVG Export Plug-In . SVG Version: 6.00 Build 0)  -->
<svg version="1.1" id="Layer_1" xmlns="http://www.w3.org/2000/svg" xmlns:xlink="http://www.w3.org/1999/xlink" x="0px" y="0px"
	 viewBox="0 0 433 433" style="enable-background:new 0 0 433 433;" xml:space="preserve">
<style type="text/css">
	.st0{fill:#2CA0FF;}
	.st1{fill:#E8E338;}
	.st2{fill:#2894DD;}
	.st3{fill:#BACC3A;}
	.st4{fill:#C5CC2E;}
	.st5{fill:#93AD23;}
	.st6{fill:#FFEA63;}
	.st7{fill:#FF624B;}
	.st8{fill:#FF4B34;}
	.st9{fill:#FF9079;}
</style>
<path class="st0" d="M420.6,213.3c0,116.2-94.2,210.3-210.3,210.3C94.2,423.6,0,329.4,0,213.3C0,97.1,94.2,3,210.3,3
	C326.5,3,420.6,97.1,420.6,213.3z"/>
<path class="st1" d="M115.1,148.7h-105C3.6,169.1,0,190.8,0,213.3c0,27.1,5.2,52.9,14.5,76.7h54.1c22.6,0,40.9-18.3,40.9-40.9v-12.9
	c0-3.1,2.5-5.6,5.6-5.6c22.6,0,40.9-18.3,40.9-40.9v0C156,167,137.7,148.7,115.1,148.7z"/>
<path class="st1" d="M210.3,3c-30.5,0-59.5,6.5-85.6,18.2c3.9,20.3,21.8,35.6,43.2,35.6h57.8c24.3,0,44-19.7,44-44v-1.2
	C250.9,5.9,231,3,210.3,3z"/>
<path class="st2" d="M71,213.3C71,109.2,146.6,22.8,245.8,6c-11.5-2-23.4-3-35.5-3C94.2,3,0,97.1,0,213.3
	c0,116.2,94.2,210.3,210.3,210.3c12.1,0,24-1,35.5-3C146.6,403.7,71,317.3,71,213.3z"/>
<path class="st3" d="M84.3,286.9C75.7,264,71,239.2,71,213.3c0-22.5,3.5-44.2,10.1-64.5h-71c-4.1,12.7-7,25.8-8.6,39.4
	c0,0.2-0.1,0.4-0.1,0.7c-0.3,2.6-0.6,5.1-0.8,7.7v0c-0.1,0.8-0.1,1.5-0.2,2.3c-0.1,0.9-0.1,1.8-0.2,2.7c0,0.7-0.1,1.4-0.1,2
	c0,1-0.1,2.1-0.1,3.2c0,0.6,0,1.1-0.1,1.7c0,1.6-0.1,3.2-0.1,4.9v0c0,0,0,0.1,0,0.1c0,1.7,0,3.4,0.1,5.1c0,0.8,0.1,1.6,0.1,2.4
	c0,0.9,0.1,1.8,0.1,2.7c0.1,1.1,0.1,2.2,0.2,3.2c0,0.6,0.1,1.2,0.1,1.8c0.1,1.3,0.2,2.6,0.3,3.9c0,0.3,0.1,0.7,0.1,1
	c0.1,1.5,0.3,3,0.5,4.5c0,0.1,0,0.2,0,0.3c2.2,18,6.6,35.3,13,51.6h54.1C74.2,290,79.4,288.9,84.3,286.9z"/>
<path class="st3" d="M241.2,5.2c-0.6-0.1-1.1-0.2-1.7-0.2c-1.7-0.2-3.5-0.5-5.2-0.7c-0.5-0.1-1-0.1-1.5-0.2
	c-2.1-0.2-4.1-0.4-6.2-0.6c-0.6,0-1.1-0.1-1.7-0.1c-2.1-0.1-4.3-0.3-6.4-0.3c-0.4,0-0.9,0-1.3,0C214.9,3,212.6,3,210.3,3h0
	c-1.9,0-3.7,0-5.6,0.1c-0.6,0-1.2,0-1.8,0.1c-1.3,0-2.5,0.1-3.8,0.2c-0.7,0-1.3,0.1-2,0.1c-1.2,0.1-2.3,0.1-3.5,0.2
	c-0.7,0.1-1.4,0.1-2.1,0.2c-1.1,0.1-2.3,0.2-3.4,0.3c-0.7,0.1-1.4,0.2-2,0.2c-1.1,0.1-2.3,0.3-3.4,0.4c-0.7,0.1-1.3,0.2-2,0.3
	c-1.1,0.2-2.3,0.3-3.4,0.5c-0.6,0.1-1.3,0.2-1.9,0.3c-1.2,0.2-2.3,0.4-3.5,0.6c-0.6,0.1-1.2,0.2-1.8,0.3c-1.2,0.2-2.4,0.5-3.6,0.7
	c-0.6,0.1-1.1,0.2-1.7,0.4c-1.2,0.3-2.4,0.5-3.6,0.8c-0.5,0.1-1,0.2-1.6,0.4c-1.3,0.3-2.5,0.6-3.7,1c-0.5,0.1-0.9,0.2-1.4,0.4
	c-1.3,0.4-2.6,0.7-3.9,1.1c-0.4,0.1-0.8,0.2-1.2,0.4c-1.3,0.4-2.7,0.8-4,1.2c-0.4,0.1-0.7,0.2-1.1,0.4c-1.4,0.5-2.8,0.9-4.1,1.4
	c-0.3,0.1-0.6,0.2-0.9,0.3c-1.4,0.5-2.9,1.1-4.3,1.6c-0.2,0.1-0.4,0.2-0.6,0.2c-1.5,0.6-3,1.2-4.5,1.8c-0.1,0-0.2,0.1-0.4,0.1
	c-1.6,0.7-3.2,1.4-4.8,2.1c2.5,13.1,10.9,24.2,22.3,30.3c27.8-23.1,61.6-39.2,98.8-45.5C244.3,5.7,242.8,5.5,241.2,5.2z"/>
<path class="st1" d="M381.8,91.5h-54c-18.5,0-33.6,15-33.6,33.6v9.3c0,18.5,15,33.6,33.6,33.6H338c10.6,0,18.3,9.7,16.4,20.1
	c-0.3,1.9-0.5,3.9-0.5,6v9.3c0,18.5,15,33.6,33.6,33.6h31.9c0.9-7.7,1.3-15.5,1.3-23.5C420.6,167.9,406.3,125.9,381.8,91.5z"/>
<path class="st4" d="M322,427.8C446.4,416.6,436,321,429.6,291.1c-1.1-5-7.6-7.1-14.4-4.6c-41.1,15.1-168.7,69.3-105.9,137.3
	C312.1,426.8,316.7,428.2,322,427.8z"/>
<path class="st5" d="M431.1,299.1c-0.5-3-1-5.7-1.5-8c-1.1-5-7.6-7.1-14.4-4.6c-18.7,6.9-55.2,21.8-83.6,42.4
	c-0.5,0.4-1,0.8-1.5,1.1c-0.1,0.1-0.1,0.1-0.2,0.2c-0.4,0.3-0.9,0.7-1.3,1c-0.1,0.1-0.2,0.1-0.3,0.2c-0.4,0.3-0.8,0.6-1.2,0.9
	c-0.1,0.1-0.2,0.2-0.3,0.3c-0.4,0.3-0.8,0.6-1.2,0.9c-0.1,0.1-0.2,0.2-0.4,0.3c-0.4,0.3-0.8,0.6-1.1,0.9c-0.1,0.1-0.2,0.2-0.3,0.3
	c-0.4,0.3-0.8,0.6-1.1,1c-0.1,0.1-0.2,0.2-0.3,0.2c-0.4,0.3-0.8,0.7-1.2,1c-0.1,0.1-0.2,0.1-0.2,0.2c-0.5,0.4-0.9,0.8-1.4,1.2
	c0,0,0,0,0,0c-1.4,1.2-2.8,2.5-4.1,3.8c-0.1,0.1-0.1,0.1-0.2,0.2c-0.4,0.4-0.8,0.7-1.1,1.1c-0.1,0.1-0.2,0.2-0.3,0.3
	c-0.3,0.3-0.7,0.7-1,1c-0.1,0.1-0.2,0.2-0.3,0.3c-0.3,0.3-0.6,0.6-0.9,0.9c-0.1,0.1-0.2,0.3-0.4,0.4c-0.3,0.3-0.6,0.6-0.8,0.9
	c-0.1,0.1-0.2,0.3-0.4,0.4c-0.3,0.3-0.5,0.6-0.8,0.9c-0.1,0.1-0.2,0.3-0.4,0.4c-0.3,0.3-0.5,0.6-0.8,0.9c-0.1,0.1-0.2,0.2-0.3,0.4
	c-0.3,0.3-0.6,0.7-0.8,1c-0.1,0.1-0.2,0.2-0.3,0.3c-0.3,0.4-0.6,0.8-0.9,1.1c0,0.1-0.1,0.1-0.1,0.2c-0.7,0.9-1.4,1.8-2.1,2.7
	c0,0,0,0,0,0c-0.3,0.4-0.6,0.9-0.9,1.3c-0.1,0.1-0.1,0.2-0.2,0.3c-0.2,0.3-0.5,0.7-0.7,1c-0.1,0.1-0.2,0.3-0.3,0.4
	c-0.2,0.3-0.4,0.6-0.6,1c-0.1,0.2-0.2,0.3-0.3,0.5c-0.2,0.3-0.4,0.6-0.6,0.9c-0.1,0.2-0.2,0.3-0.3,0.5c-0.2,0.3-0.3,0.6-0.5,0.9
	c-0.1,0.2-0.2,0.3-0.3,0.5c-0.2,0.3-0.3,0.6-0.5,0.9c-0.1,0.2-0.2,0.3-0.3,0.5c-0.2,0.3-0.3,0.6-0.5,0.9c-0.1,0.2-0.2,0.3-0.2,0.5
	c-0.2,0.3-0.3,0.6-0.5,1c-0.1,0.1-0.1,0.3-0.2,0.4c-0.2,0.4-0.3,0.7-0.5,1.1c0,0.1-0.1,0.2-0.1,0.3c-0.4,1-0.8,1.9-1.1,2.9
	c0,0.1-0.1,0.2-0.1,0.3c-0.1,0.4-0.3,0.8-0.4,1.2c0,0.2-0.1,0.3-0.1,0.5c-0.1,0.3-0.2,0.7-0.3,1c-0.1,0.2-0.1,0.4-0.1,0.5
	c-0.1,0.3-0.2,0.6-0.2,0.9c0,0.2-0.1,0.4-0.1,0.6c-0.1,0.3-0.1,0.6-0.2,0.9c0,0.2-0.1,0.4-0.1,0.6c-0.1,0.3-0.1,0.6-0.2,0.9
	c0,0.2-0.1,0.4-0.1,0.6c0,0.3-0.1,0.6-0.1,0.9c0,0.2-0.1,0.4-0.1,0.6c0,0.3-0.1,0.6-0.1,0.9c0,0.2,0,0.4-0.1,0.6
	c0,0.3-0.1,0.6-0.1,1c0,0.2,0,0.4,0,0.5c0,0.4,0,0.7,0,1.1c0,0.1,0,0.3,0,0.4c0,1,0,2,0.1,3.1c0,0.1,0,0.3,0,0.4
	c0,0.4,0.1,0.7,0.1,1.1c0,0.2,0,0.4,0.1,0.6c0,0.3,0.1,0.7,0.1,1c0,0.2,0.1,0.4,0.1,0.6c0,0.3,0.1,0.6,0.1,0.9
	c0,0.2,0.1,0.4,0.1,0.7c0.1,0.3,0.1,0.6,0.2,0.9c0,0.2,0.1,0.4,0.1,0.7c0.1,0.3,0.1,0.6,0.2,0.9c0.1,0.2,0.1,0.4,0.2,0.7
	c0.1,0.3,0.2,0.6,0.2,0.9c0.1,0.2,0.1,0.4,0.2,0.7c0.1,0.3,0.2,0.6,0.3,0.9c0.1,0.2,0.1,0.4,0.2,0.7c0.1,0.3,0.2,0.6,0.3,1
	c0.1,0.2,0.1,0.4,0.2,0.6c0.1,0.4,0.3,0.7,0.4,1.1c0.1,0.2,0.1,0.3,0.2,0.5c0.2,0.5,0.4,1,0.7,1.6c0,0,0,0,0,0
	c0.2,0.5,0.5,1.1,0.8,1.6c0.1,0.2,0.2,0.3,0.3,0.5c0.2,0.4,0.4,0.7,0.6,1.1c0.1,0.2,0.2,0.4,0.3,0.6c0.2,0.3,0.4,0.7,0.5,1
	c0.1,0.2,0.3,0.4,0.4,0.7c0.2,0.3,0.4,0.6,0.6,0.9c0.1,0.2,0.3,0.5,0.4,0.7c0.2,0.3,0.4,0.6,0.6,0.9c0.2,0.2,0.3,0.5,0.5,0.7
	c0.2,0.3,0.4,0.6,0.6,0.9c0.2,0.2,0.3,0.5,0.5,0.7c0.2,0.3,0.5,0.6,0.7,0.9c0.2,0.2,0.3,0.5,0.5,0.7c0.2,0.3,0.5,0.6,0.7,1
	c0.2,0.2,0.4,0.5,0.5,0.7c0.3,0.3,0.5,0.7,0.8,1c0.2,0.2,0.4,0.4,0.5,0.7c0.3,0.4,0.6,0.7,1,1.1c0.2,0.2,0.3,0.4,0.5,0.5
	c0.5,0.6,1,1.1,1.5,1.7c0.2,0.3,0.5,0.5,0.8,0.7c0.1,0.1,0.3,0.2,0.4,0.3c0.1,0.1,0.3,0.2,0.4,0.3c0.2,0.1,0.4,0.2,0.5,0.4
	c0.1,0.1,0.2,0.1,0.3,0.1c0.6,0.3,1.2,0.7,1.8,0.9c2.8,0.3,5.7,0.5,8.6,0.7c1.3,0.1,2.6,0.1,3.8,0c0.4,0,0.8-0.1,1.2-0.1
	c4.2-0.6,7.7-2.2,10-4.8c26.3-29.8,23.3-56.8,6.3-79.9c28.4-20.6,64.9-35.5,83.6-42.4C428.4,299.6,429.8,299.3,431.1,299.1z"/>
<path class="st1" d="M300,431.5c-146.6-24.6-125.7-137.1-115.4-172c1.7-5.9,9.7-7.8,17.5-4.2c47.4,21.7,194.1,97.5,113.4,172.7
	C311.9,431.2,306.2,432.5,300,431.5z"/>
<path class="st3" d="M211.6,259.7c-3.5-1.7-6.7-3.2-9.5-4.5c-7.8-3.6-15.8-1.7-17.5,4.2c-10.3,34.9-31.2,147.5,115.4,172
	c6.3,1,12-0.2,15.5-3.5c3.4-3.1,6.3-6.3,8.9-9.4C197.8,394.6,202.1,302.8,211.6,259.7z"/>
<path class="st6" d="M312.4,410.3c-1.7,0-3.4-0.7-4.6-2.1L269.2,362c-2.1-2.5-1.8-6.3,0.8-8.4s6.3-1.8,8.4,0.8l38.6,46.1
	c2.1,2.5,1.8,6.3-0.8,8.4C315.1,409.8,313.7,410.3,312.4,410.3z"/>
<path class="st7" d="M373.5,213c-11.1-12.3-31.5-10.4-49.1,3.3c-17.6-13.7-38-15.6-49.1-3.3c-13.2,14.6-8.2,43.9,11,65.3
	c7.3,8.1,15.7,14,23.9,17.3c4.2,2.3,9,3.3,14.2,3.1c5.2,0.2,10-0.9,14.2-3.1c8.3-3.3,16.6-9.1,23.9-17.3
	C381.7,256.9,386.7,227.7,373.5,213z"/>
<path class="st8" d="M320,278.3c-19.2-21.4-24.2-50.6-11-65.3c1.3-1.4,2.7-2.6,4.1-3.7c-14.5-6.9-29.1-6.1-37.9,3.7
	c-13.2,14.6-8.2,43.9,11,65.3c7.3,8.1,15.7,14,23.9,17.3c4.2,2.3,9,3.3,14.2,3.1c5.2,0.2,10-0.9,14.2-3.1c0.9-0.4,1.8-0.8,2.7-1.2
	C333.9,290.9,326.5,285.5,320,278.3z"/>
<path class="st6" d="M401.1,202.4c-3,0-5.6-2.3-5.9-5.4c-9.7-92.7-73.3-132.1-73.9-132.5c-2.8-1.7-3.7-5.4-2-8.2
	c1.7-2.8,5.4-3.7,8.2-2c0.7,0.4,17.8,10.9,36.1,33.6c16.9,20.8,38.1,56.5,43.5,107.9c0.3,3.3-2,6.2-5.3,6.6
	C401.5,202.3,401.3,202.4,401.1,202.4z"/>
<path class="st2" d="M155.6,107.8c0,9-7.3,16.3-16.3,16.3s-16.3-7.3-16.3-16.3s7.3-16.3,16.3-16.3S155.6,98.8,155.6,107.8z"/>
<path class="st2" d="M193.5,141.1c0,9-7.3,16.3-16.3,16.3s-16.3-7.3-16.3-16.3s7.3-16.3,16.3-16.3S193.5,132.1,193.5,141.1z"/>
<path class="st5" d="M394.4,347c0,9-7.3,16.3-16.3,16.3s-16.3-7.3-16.3-16.3s7.3-16.3,16.3-16.3S394.4,337.9,394.4,347z"/>
<path class="st9" d="M353.1,270.8c-1.7,0-3.3-0.7-4.5-2c-2.2-2.5-2-6.3,0.5-8.5c14.8-13.1,9.4-28.9,9.4-29.1
	c-1.1-3.1,0.5-6.5,3.6-7.7c3.1-1.1,6.5,0.5,7.7,3.6c0.3,1,8.1,23.6-12.7,42.1C355.9,270.3,354.5,270.8,353.1,270.8z"/>
</svg>
